<mxfile host="app.diagrams.net" modified="2023-03-13T10:13:28.959Z" agent="5.0 (Windows NT 10.0; Win64; x64) AppleWebKit/537.36 (KHTML, like Gecko) Chrome/110.0.0.0 Safari/537.36" etag="ZbfbVjUgjt75qeCKFhF3" version="21.0.6" type="github">
  <diagram name="Pagina-1" id="GL-hhu96RCD5F2woMkXF">
    <mxGraphModel dx="1615" dy="845" grid="1" gridSize="10" guides="1" tooltips="1" connect="1" arrows="1" fold="1" page="1" pageScale="1" pageWidth="827" pageHeight="1169" math="0" shadow="0">
      <root>
        <mxCell id="0" />
        <mxCell id="1" parent="0" />
        <mxCell id="XoTrVkiUybTX8jjWBUQh-9" style="edgeStyle=orthogonalEdgeStyle;rounded=0;orthogonalLoop=1;jettySize=auto;html=1;exitX=0.5;exitY=1;exitDx=0;exitDy=0;" edge="1" parent="1" source="XoTrVkiUybTX8jjWBUQh-1" target="XoTrVkiUybTX8jjWBUQh-3">
          <mxGeometry relative="1" as="geometry" />
        </mxCell>
        <mxCell id="XoTrVkiUybTX8jjWBUQh-1" value="Launch&lt;br&gt;Application" style="ellipse;whiteSpace=wrap;html=1;aspect=fixed;fillColor=#d5e8d4;strokeColor=#82b366;" vertex="1" parent="1">
          <mxGeometry x="400" y="40" width="80" height="80" as="geometry" />
        </mxCell>
        <mxCell id="XoTrVkiUybTX8jjWBUQh-5" value="NO" style="edgeStyle=orthogonalEdgeStyle;rounded=0;orthogonalLoop=1;jettySize=auto;html=1;exitX=0;exitY=0.5;exitDx=0;exitDy=0;fillColor=#f8cecc;strokeColor=#b85450;" edge="1" parent="1" source="XoTrVkiUybTX8jjWBUQh-3" target="XoTrVkiUybTX8jjWBUQh-4">
          <mxGeometry x="-0.5294" relative="1" as="geometry">
            <mxPoint as="offset" />
          </mxGeometry>
        </mxCell>
        <mxCell id="XoTrVkiUybTX8jjWBUQh-12" style="edgeStyle=orthogonalEdgeStyle;rounded=0;orthogonalLoop=1;jettySize=auto;html=1;exitX=0.5;exitY=1;exitDx=0;exitDy=0;fillColor=#d5e8d4;strokeColor=#82b366;" edge="1" parent="1" source="XoTrVkiUybTX8jjWBUQh-3" target="XoTrVkiUybTX8jjWBUQh-10">
          <mxGeometry relative="1" as="geometry" />
        </mxCell>
        <mxCell id="XoTrVkiUybTX8jjWBUQh-13" value="YES" style="edgeLabel;html=1;align=center;verticalAlign=middle;resizable=0;points=[];" vertex="1" connectable="0" parent="XoTrVkiUybTX8jjWBUQh-12">
          <mxGeometry x="-0.1486" relative="1" as="geometry">
            <mxPoint as="offset" />
          </mxGeometry>
        </mxCell>
        <mxCell id="XoTrVkiUybTX8jjWBUQh-3" value="Is there an&lt;br&gt;exsiting user" style="rounded=1;whiteSpace=wrap;html=1;" vertex="1" parent="1">
          <mxGeometry x="380" y="160" width="120" height="60" as="geometry" />
        </mxCell>
        <mxCell id="XoTrVkiUybTX8jjWBUQh-14" style="edgeStyle=orthogonalEdgeStyle;rounded=0;orthogonalLoop=1;jettySize=auto;html=1;exitX=0.5;exitY=1;exitDx=0;exitDy=0;entryX=0.25;entryY=0;entryDx=0;entryDy=0;" edge="1" parent="1" source="XoTrVkiUybTX8jjWBUQh-4" target="XoTrVkiUybTX8jjWBUQh-10">
          <mxGeometry relative="1" as="geometry" />
        </mxCell>
        <mxCell id="XoTrVkiUybTX8jjWBUQh-4" value="Login Screen" style="rounded=1;whiteSpace=wrap;html=1;" vertex="1" parent="1">
          <mxGeometry x="200" y="240" width="120" height="60" as="geometry" />
        </mxCell>
        <mxCell id="XoTrVkiUybTX8jjWBUQh-16" style="edgeStyle=orthogonalEdgeStyle;rounded=0;orthogonalLoop=1;jettySize=auto;html=1;exitX=0;exitY=0.5;exitDx=0;exitDy=0;entryX=0.5;entryY=0;entryDx=0;entryDy=0;fillColor=#f8cecc;strokeColor=#b85450;" edge="1" parent="1" source="XoTrVkiUybTX8jjWBUQh-10" target="XoTrVkiUybTX8jjWBUQh-15">
          <mxGeometry relative="1" as="geometry" />
        </mxCell>
        <mxCell id="XoTrVkiUybTX8jjWBUQh-17" value="NO" style="edgeLabel;html=1;align=center;verticalAlign=middle;resizable=0;points=[];" vertex="1" connectable="0" parent="XoTrVkiUybTX8jjWBUQh-16">
          <mxGeometry x="-0.0682" relative="1" as="geometry">
            <mxPoint x="57" as="offset" />
          </mxGeometry>
        </mxCell>
        <mxCell id="XoTrVkiUybTX8jjWBUQh-19" value="YES" style="edgeStyle=orthogonalEdgeStyle;rounded=0;orthogonalLoop=1;jettySize=auto;html=1;exitX=0.5;exitY=1;exitDx=0;exitDy=0;entryX=0.5;entryY=0;entryDx=0;entryDy=0;fillColor=#d5e8d4;strokeColor=#82b366;" edge="1" parent="1" source="XoTrVkiUybTX8jjWBUQh-10" target="XoTrVkiUybTX8jjWBUQh-18">
          <mxGeometry relative="1" as="geometry" />
        </mxCell>
        <mxCell id="XoTrVkiUybTX8jjWBUQh-10" value="Is there an&lt;br&gt;exsiting save file" style="rounded=1;whiteSpace=wrap;html=1;" vertex="1" parent="1">
          <mxGeometry x="380" y="360" width="120" height="60" as="geometry" />
        </mxCell>
        <mxCell id="XoTrVkiUybTX8jjWBUQh-21" style="edgeStyle=orthogonalEdgeStyle;rounded=0;orthogonalLoop=1;jettySize=auto;html=1;exitX=0.5;exitY=1;exitDx=0;exitDy=0;entryX=0.25;entryY=0;entryDx=0;entryDy=0;" edge="1" parent="1" source="XoTrVkiUybTX8jjWBUQh-15" target="XoTrVkiUybTX8jjWBUQh-20">
          <mxGeometry relative="1" as="geometry" />
        </mxCell>
        <mxCell id="XoTrVkiUybTX8jjWBUQh-15" value="Create New&lt;br&gt;Save File" style="rounded=1;whiteSpace=wrap;html=1;" vertex="1" parent="1">
          <mxGeometry x="200" y="480" width="120" height="60" as="geometry" />
        </mxCell>
        <mxCell id="XoTrVkiUybTX8jjWBUQh-22" style="edgeStyle=orthogonalEdgeStyle;rounded=0;orthogonalLoop=1;jettySize=auto;html=1;exitX=0.5;exitY=1;exitDx=0;exitDy=0;entryX=0.5;entryY=0;entryDx=0;entryDy=0;" edge="1" parent="1" source="XoTrVkiUybTX8jjWBUQh-18" target="XoTrVkiUybTX8jjWBUQh-20">
          <mxGeometry relative="1" as="geometry" />
        </mxCell>
        <mxCell id="XoTrVkiUybTX8jjWBUQh-18" value="Load Save File&lt;br&gt;to datastructure" style="rounded=1;whiteSpace=wrap;html=1;" vertex="1" parent="1">
          <mxGeometry x="380" y="480" width="120" height="60" as="geometry" />
        </mxCell>
        <mxCell id="XoTrVkiUybTX8jjWBUQh-43" style="edgeStyle=orthogonalEdgeStyle;rounded=0;orthogonalLoop=1;jettySize=auto;html=1;exitX=0.5;exitY=1;exitDx=0;exitDy=0;entryX=0.5;entryY=0;entryDx=0;entryDy=0;" edge="1" parent="1" source="XoTrVkiUybTX8jjWBUQh-20" target="XoTrVkiUybTX8jjWBUQh-39">
          <mxGeometry relative="1" as="geometry" />
        </mxCell>
        <mxCell id="XoTrVkiUybTX8jjWBUQh-20" value="Create GUI" style="rounded=1;whiteSpace=wrap;html=1;" vertex="1" parent="1">
          <mxGeometry x="380" y="600" width="120" height="60" as="geometry" />
        </mxCell>
        <mxCell id="XoTrVkiUybTX8jjWBUQh-32" style="edgeStyle=orthogonalEdgeStyle;rounded=0;orthogonalLoop=1;jettySize=auto;html=1;exitX=0.5;exitY=1;exitDx=0;exitDy=0;" edge="1" parent="1" source="XoTrVkiUybTX8jjWBUQh-29" target="XoTrVkiUybTX8jjWBUQh-31">
          <mxGeometry relative="1" as="geometry" />
        </mxCell>
        <mxCell id="XoTrVkiUybTX8jjWBUQh-29" value="User presses right&lt;br&gt;click on grid" style="rounded=1;whiteSpace=wrap;html=1;" vertex="1" parent="1">
          <mxGeometry x="380" y="840" width="120" height="60" as="geometry" />
        </mxCell>
        <mxCell id="XoTrVkiUybTX8jjWBUQh-34" style="edgeStyle=orthogonalEdgeStyle;rounded=0;orthogonalLoop=1;jettySize=auto;html=1;exitX=0.5;exitY=1;exitDx=0;exitDy=0;entryX=0.5;entryY=0;entryDx=0;entryDy=0;" edge="1" parent="1" source="XoTrVkiUybTX8jjWBUQh-31" target="XoTrVkiUybTX8jjWBUQh-33">
          <mxGeometry relative="1" as="geometry" />
        </mxCell>
        <mxCell id="XoTrVkiUybTX8jjWBUQh-38" style="edgeStyle=orthogonalEdgeStyle;rounded=0;orthogonalLoop=1;jettySize=auto;html=1;exitX=1;exitY=0.5;exitDx=0;exitDy=0;entryX=0.5;entryY=0;entryDx=0;entryDy=0;" edge="1" parent="1" source="XoTrVkiUybTX8jjWBUQh-31" target="XoTrVkiUybTX8jjWBUQh-37">
          <mxGeometry relative="1" as="geometry" />
        </mxCell>
        <mxCell id="XoTrVkiUybTX8jjWBUQh-31" value="Open Node&lt;br&gt;Selection List" style="rounded=1;whiteSpace=wrap;html=1;" vertex="1" parent="1">
          <mxGeometry x="380" y="960" width="120" height="60" as="geometry" />
        </mxCell>
        <mxCell id="XoTrVkiUybTX8jjWBUQh-36" style="edgeStyle=orthogonalEdgeStyle;rounded=0;orthogonalLoop=1;jettySize=auto;html=1;exitX=0.5;exitY=1;exitDx=0;exitDy=0;entryX=0.5;entryY=0;entryDx=0;entryDy=0;" edge="1" parent="1" source="XoTrVkiUybTX8jjWBUQh-33" target="XoTrVkiUybTX8jjWBUQh-35">
          <mxGeometry relative="1" as="geometry" />
        </mxCell>
        <mxCell id="XoTrVkiUybTX8jjWBUQh-33" value="User selects&lt;br&gt;Node from Selection&lt;br&gt;List" style="rounded=1;whiteSpace=wrap;html=1;" vertex="1" parent="1">
          <mxGeometry x="380" y="1080" width="120" height="60" as="geometry" />
        </mxCell>
        <mxCell id="XoTrVkiUybTX8jjWBUQh-42" style="edgeStyle=orthogonalEdgeStyle;rounded=0;orthogonalLoop=1;jettySize=auto;html=1;exitX=1;exitY=0.5;exitDx=0;exitDy=0;entryX=1;entryY=0.5;entryDx=0;entryDy=0;dashed=1;" edge="1" parent="1" source="XoTrVkiUybTX8jjWBUQh-35" target="XoTrVkiUybTX8jjWBUQh-39">
          <mxGeometry relative="1" as="geometry">
            <Array as="points">
              <mxPoint x="700" y="1230" />
              <mxPoint x="700" y="750" />
            </Array>
          </mxGeometry>
        </mxCell>
        <mxCell id="XoTrVkiUybTX8jjWBUQh-35" value="Place new Node&lt;br&gt;At the grid where&lt;br&gt;the mouse was clicked" style="rounded=1;whiteSpace=wrap;html=1;" vertex="1" parent="1">
          <mxGeometry x="380" y="1200" width="120" height="60" as="geometry" />
        </mxCell>
        <mxCell id="XoTrVkiUybTX8jjWBUQh-41" style="edgeStyle=orthogonalEdgeStyle;rounded=0;orthogonalLoop=1;jettySize=auto;html=1;exitX=0.5;exitY=1;exitDx=0;exitDy=0;entryX=1;entryY=0.5;entryDx=0;entryDy=0;dashed=1;" edge="1" parent="1" source="XoTrVkiUybTX8jjWBUQh-37" target="XoTrVkiUybTX8jjWBUQh-39">
          <mxGeometry relative="1" as="geometry">
            <Array as="points">
              <mxPoint x="620" y="1160" />
              <mxPoint x="700" y="1160" />
              <mxPoint x="700" y="750" />
            </Array>
          </mxGeometry>
        </mxCell>
        <mxCell id="XoTrVkiUybTX8jjWBUQh-37" value="User does not&lt;br&gt;select Node from Selection List" style="rounded=1;whiteSpace=wrap;html=1;" vertex="1" parent="1">
          <mxGeometry x="560" y="1080" width="120" height="60" as="geometry" />
        </mxCell>
        <mxCell id="XoTrVkiUybTX8jjWBUQh-40" style="edgeStyle=orthogonalEdgeStyle;rounded=0;orthogonalLoop=1;jettySize=auto;html=1;exitX=0.5;exitY=1;exitDx=0;exitDy=0;entryX=0.5;entryY=0;entryDx=0;entryDy=0;" edge="1" parent="1" source="XoTrVkiUybTX8jjWBUQh-39" target="XoTrVkiUybTX8jjWBUQh-29">
          <mxGeometry relative="1" as="geometry" />
        </mxCell>
        <mxCell id="XoTrVkiUybTX8jjWBUQh-67" style="edgeStyle=orthogonalEdgeStyle;rounded=0;orthogonalLoop=1;jettySize=auto;html=1;exitX=0.5;exitY=1;exitDx=0;exitDy=0;" edge="1" parent="1" source="XoTrVkiUybTX8jjWBUQh-39" target="XoTrVkiUybTX8jjWBUQh-66">
          <mxGeometry relative="1" as="geometry" />
        </mxCell>
        <mxCell id="XoTrVkiUybTX8jjWBUQh-69" style="edgeStyle=orthogonalEdgeStyle;rounded=0;orthogonalLoop=1;jettySize=auto;html=1;exitX=0.5;exitY=1;exitDx=0;exitDy=0;entryX=0.5;entryY=0;entryDx=0;entryDy=0;" edge="1" parent="1" source="XoTrVkiUybTX8jjWBUQh-39" target="XoTrVkiUybTX8jjWBUQh-68">
          <mxGeometry relative="1" as="geometry" />
        </mxCell>
        <mxCell id="XoTrVkiUybTX8jjWBUQh-77" style="edgeStyle=orthogonalEdgeStyle;rounded=0;orthogonalLoop=1;jettySize=auto;html=1;exitX=0.5;exitY=1;exitDx=0;exitDy=0;entryX=0.5;entryY=0;entryDx=0;entryDy=0;" edge="1" parent="1" source="XoTrVkiUybTX8jjWBUQh-39" target="XoTrVkiUybTX8jjWBUQh-76">
          <mxGeometry relative="1" as="geometry" />
        </mxCell>
        <mxCell id="XoTrVkiUybTX8jjWBUQh-86" style="edgeStyle=orthogonalEdgeStyle;rounded=0;orthogonalLoop=1;jettySize=auto;html=1;exitX=0.5;exitY=1;exitDx=0;exitDy=0;entryX=0.5;entryY=0;entryDx=0;entryDy=0;" edge="1" parent="1" source="XoTrVkiUybTX8jjWBUQh-39" target="XoTrVkiUybTX8jjWBUQh-85">
          <mxGeometry relative="1" as="geometry" />
        </mxCell>
        <mxCell id="XoTrVkiUybTX8jjWBUQh-95" style="edgeStyle=orthogonalEdgeStyle;rounded=0;orthogonalLoop=1;jettySize=auto;html=1;exitX=0.5;exitY=1;exitDx=0;exitDy=0;entryX=0.5;entryY=0;entryDx=0;entryDy=0;" edge="1" parent="1" source="XoTrVkiUybTX8jjWBUQh-39" target="XoTrVkiUybTX8jjWBUQh-94">
          <mxGeometry relative="1" as="geometry" />
        </mxCell>
        <mxCell id="XoTrVkiUybTX8jjWBUQh-107" style="edgeStyle=orthogonalEdgeStyle;rounded=0;orthogonalLoop=1;jettySize=auto;html=1;exitX=0.5;exitY=1;exitDx=0;exitDy=0;" edge="1" parent="1" source="XoTrVkiUybTX8jjWBUQh-39" target="XoTrVkiUybTX8jjWBUQh-102">
          <mxGeometry relative="1" as="geometry" />
        </mxCell>
        <mxCell id="XoTrVkiUybTX8jjWBUQh-39" value="Wait for user input" style="rounded=1;whiteSpace=wrap;html=1;" vertex="1" parent="1">
          <mxGeometry x="380" y="720" width="120" height="60" as="geometry" />
        </mxCell>
        <mxCell id="XoTrVkiUybTX8jjWBUQh-73" style="edgeStyle=orthogonalEdgeStyle;rounded=0;orthogonalLoop=1;jettySize=auto;html=1;exitX=0.5;exitY=1;exitDx=0;exitDy=0;" edge="1" parent="1" source="XoTrVkiUybTX8jjWBUQh-66" target="XoTrVkiUybTX8jjWBUQh-71">
          <mxGeometry relative="1" as="geometry" />
        </mxCell>
        <mxCell id="XoTrVkiUybTX8jjWBUQh-66" value="User presses hand icon in menu" style="rounded=1;whiteSpace=wrap;html=1;" vertex="1" parent="1">
          <mxGeometry x="200" y="840" width="120" height="60" as="geometry" />
        </mxCell>
        <mxCell id="XoTrVkiUybTX8jjWBUQh-72" style="edgeStyle=orthogonalEdgeStyle;rounded=0;orthogonalLoop=1;jettySize=auto;html=1;exitX=0.5;exitY=1;exitDx=0;exitDy=0;entryX=0.5;entryY=0;entryDx=0;entryDy=0;" edge="1" parent="1" source="XoTrVkiUybTX8jjWBUQh-68" target="XoTrVkiUybTX8jjWBUQh-70">
          <mxGeometry relative="1" as="geometry" />
        </mxCell>
        <mxCell id="XoTrVkiUybTX8jjWBUQh-68" value="User presses pointer icon in menu" style="rounded=1;whiteSpace=wrap;html=1;" vertex="1" parent="1">
          <mxGeometry x="20" y="840" width="120" height="60" as="geometry" />
        </mxCell>
        <mxCell id="XoTrVkiUybTX8jjWBUQh-75" style="edgeStyle=orthogonalEdgeStyle;rounded=0;orthogonalLoop=1;jettySize=auto;html=1;exitX=1;exitY=0.5;exitDx=0;exitDy=0;dashed=1;" edge="1" parent="1" source="XoTrVkiUybTX8jjWBUQh-70">
          <mxGeometry relative="1" as="geometry">
            <mxPoint x="380" y="750" as="targetPoint" />
            <Array as="points">
              <mxPoint x="160" y="990" />
              <mxPoint x="160" y="750" />
            </Array>
          </mxGeometry>
        </mxCell>
        <mxCell id="XoTrVkiUybTX8jjWBUQh-70" value="Chance pointer to pointer" style="rounded=1;whiteSpace=wrap;html=1;" vertex="1" parent="1">
          <mxGeometry x="20" y="960" width="120" height="60" as="geometry" />
        </mxCell>
        <mxCell id="XoTrVkiUybTX8jjWBUQh-74" style="edgeStyle=orthogonalEdgeStyle;rounded=0;orthogonalLoop=1;jettySize=auto;html=1;exitX=1;exitY=0.5;exitDx=0;exitDy=0;entryX=0;entryY=0.5;entryDx=0;entryDy=0;dashed=1;" edge="1" parent="1" source="XoTrVkiUybTX8jjWBUQh-71" target="XoTrVkiUybTX8jjWBUQh-39">
          <mxGeometry relative="1" as="geometry">
            <Array as="points">
              <mxPoint x="340" y="990" />
              <mxPoint x="340" y="750" />
            </Array>
          </mxGeometry>
        </mxCell>
        <mxCell id="XoTrVkiUybTX8jjWBUQh-71" value="Chance pointer to hand" style="rounded=1;whiteSpace=wrap;html=1;" vertex="1" parent="1">
          <mxGeometry x="200" y="960" width="120" height="60" as="geometry" />
        </mxCell>
        <mxCell id="XoTrVkiUybTX8jjWBUQh-79" style="edgeStyle=orthogonalEdgeStyle;rounded=0;orthogonalLoop=1;jettySize=auto;html=1;exitX=0.5;exitY=1;exitDx=0;exitDy=0;entryX=0.5;entryY=0;entryDx=0;entryDy=0;" edge="1" parent="1" source="XoTrVkiUybTX8jjWBUQh-76" target="XoTrVkiUybTX8jjWBUQh-78">
          <mxGeometry relative="1" as="geometry" />
        </mxCell>
        <mxCell id="XoTrVkiUybTX8jjWBUQh-76" value="User presses left click on grid" style="rounded=1;whiteSpace=wrap;html=1;" vertex="1" parent="1">
          <mxGeometry x="760" y="840" width="120" height="60" as="geometry" />
        </mxCell>
        <mxCell id="XoTrVkiUybTX8jjWBUQh-81" value="HAND" style="edgeStyle=orthogonalEdgeStyle;rounded=0;orthogonalLoop=1;jettySize=auto;html=1;exitX=0.5;exitY=1;exitDx=0;exitDy=0;entryX=0.5;entryY=0;entryDx=0;entryDy=0;" edge="1" parent="1" source="XoTrVkiUybTX8jjWBUQh-78" target="XoTrVkiUybTX8jjWBUQh-80">
          <mxGeometry relative="1" as="geometry" />
        </mxCell>
        <mxCell id="XoTrVkiUybTX8jjWBUQh-82" style="edgeStyle=orthogonalEdgeStyle;rounded=0;orthogonalLoop=1;jettySize=auto;html=1;exitX=1;exitY=0.5;exitDx=0;exitDy=0;entryX=1;entryY=0.5;entryDx=0;entryDy=0;dashed=1;" edge="1" parent="1" source="XoTrVkiUybTX8jjWBUQh-78" target="XoTrVkiUybTX8jjWBUQh-39">
          <mxGeometry relative="1" as="geometry" />
        </mxCell>
        <mxCell id="XoTrVkiUybTX8jjWBUQh-78" value="Check pointer type" style="rounded=1;whiteSpace=wrap;html=1;" vertex="1" parent="1">
          <mxGeometry x="760" y="960" width="120" height="60" as="geometry" />
        </mxCell>
        <mxCell id="XoTrVkiUybTX8jjWBUQh-84" style="edgeStyle=orthogonalEdgeStyle;rounded=0;orthogonalLoop=1;jettySize=auto;html=1;exitX=1;exitY=0.5;exitDx=0;exitDy=0;entryX=1;entryY=0.5;entryDx=0;entryDy=0;dashed=1;" edge="1" parent="1" source="XoTrVkiUybTX8jjWBUQh-80" target="XoTrVkiUybTX8jjWBUQh-39">
          <mxGeometry relative="1" as="geometry" />
        </mxCell>
        <mxCell id="XoTrVkiUybTX8jjWBUQh-80" value="Move grid based on mouse movement" style="rounded=1;whiteSpace=wrap;html=1;" vertex="1" parent="1">
          <mxGeometry x="760" y="1080" width="120" height="60" as="geometry" />
        </mxCell>
        <mxCell id="XoTrVkiUybTX8jjWBUQh-89" style="edgeStyle=orthogonalEdgeStyle;rounded=0;orthogonalLoop=1;jettySize=auto;html=1;exitX=0.5;exitY=1;exitDx=0;exitDy=0;entryX=0.5;entryY=0;entryDx=0;entryDy=0;" edge="1" parent="1" source="XoTrVkiUybTX8jjWBUQh-85" target="XoTrVkiUybTX8jjWBUQh-87">
          <mxGeometry relative="1" as="geometry" />
        </mxCell>
        <mxCell id="XoTrVkiUybTX8jjWBUQh-85" value="User presses scroll button on grid" style="rounded=1;whiteSpace=wrap;html=1;" vertex="1" parent="1">
          <mxGeometry x="960" y="840" width="120" height="60" as="geometry" />
        </mxCell>
        <mxCell id="XoTrVkiUybTX8jjWBUQh-90" value="POINTER" style="edgeStyle=orthogonalEdgeStyle;rounded=0;orthogonalLoop=1;jettySize=auto;html=1;exitX=0.5;exitY=1;exitDx=0;exitDy=0;" edge="1" parent="1" source="XoTrVkiUybTX8jjWBUQh-87" target="XoTrVkiUybTX8jjWBUQh-88">
          <mxGeometry relative="1" as="geometry" />
        </mxCell>
        <mxCell id="XoTrVkiUybTX8jjWBUQh-93" style="edgeStyle=orthogonalEdgeStyle;rounded=0;orthogonalLoop=1;jettySize=auto;html=1;exitX=1;exitY=0.5;exitDx=0;exitDy=0;entryX=1;entryY=0.5;entryDx=0;entryDy=0;dashed=1;" edge="1" parent="1" source="XoTrVkiUybTX8jjWBUQh-87" target="XoTrVkiUybTX8jjWBUQh-39">
          <mxGeometry relative="1" as="geometry" />
        </mxCell>
        <mxCell id="XoTrVkiUybTX8jjWBUQh-87" value="Check pointer type" style="rounded=1;whiteSpace=wrap;html=1;" vertex="1" parent="1">
          <mxGeometry x="960" y="960" width="120" height="60" as="geometry" />
        </mxCell>
        <mxCell id="XoTrVkiUybTX8jjWBUQh-91" style="edgeStyle=orthogonalEdgeStyle;orthogonalLoop=1;jettySize=auto;html=1;exitX=1;exitY=0.5;exitDx=0;exitDy=0;entryX=1;entryY=0.5;entryDx=0;entryDy=0;dashed=1;rounded=0;" edge="1" parent="1" source="XoTrVkiUybTX8jjWBUQh-88" target="XoTrVkiUybTX8jjWBUQh-39">
          <mxGeometry relative="1" as="geometry" />
        </mxCell>
        <mxCell id="XoTrVkiUybTX8jjWBUQh-88" value="Move grid based on mouse movement" style="rounded=1;whiteSpace=wrap;html=1;" vertex="1" parent="1">
          <mxGeometry x="960" y="1080" width="120" height="60" as="geometry" />
        </mxCell>
        <mxCell id="XoTrVkiUybTX8jjWBUQh-98" style="edgeStyle=orthogonalEdgeStyle;rounded=0;orthogonalLoop=1;jettySize=auto;html=1;exitX=0.5;exitY=1;exitDx=0;exitDy=0;entryX=0.5;entryY=0;entryDx=0;entryDy=0;" edge="1" parent="1" source="XoTrVkiUybTX8jjWBUQh-94" target="XoTrVkiUybTX8jjWBUQh-96">
          <mxGeometry relative="1" as="geometry" />
        </mxCell>
        <mxCell id="XoTrVkiUybTX8jjWBUQh-94" value="User presses left click on node titleBar" style="rounded=1;whiteSpace=wrap;html=1;" vertex="1" parent="1">
          <mxGeometry x="1160" y="840" width="120" height="60" as="geometry" />
        </mxCell>
        <mxCell id="XoTrVkiUybTX8jjWBUQh-99" value="POINTER" style="edgeStyle=orthogonalEdgeStyle;rounded=0;orthogonalLoop=1;jettySize=auto;html=1;exitX=0.5;exitY=1;exitDx=0;exitDy=0;entryX=0.5;entryY=0;entryDx=0;entryDy=0;" edge="1" parent="1" source="XoTrVkiUybTX8jjWBUQh-96" target="XoTrVkiUybTX8jjWBUQh-97">
          <mxGeometry relative="1" as="geometry" />
        </mxCell>
        <mxCell id="XoTrVkiUybTX8jjWBUQh-101" style="edgeStyle=orthogonalEdgeStyle;rounded=0;orthogonalLoop=1;jettySize=auto;html=1;exitX=1;exitY=0.5;exitDx=0;exitDy=0;entryX=1;entryY=0.5;entryDx=0;entryDy=0;dashed=1;" edge="1" parent="1" source="XoTrVkiUybTX8jjWBUQh-96" target="XoTrVkiUybTX8jjWBUQh-39">
          <mxGeometry relative="1" as="geometry" />
        </mxCell>
        <mxCell id="XoTrVkiUybTX8jjWBUQh-96" value="Check Pointer type" style="rounded=1;whiteSpace=wrap;html=1;" vertex="1" parent="1">
          <mxGeometry x="1160" y="960" width="120" height="60" as="geometry" />
        </mxCell>
        <mxCell id="XoTrVkiUybTX8jjWBUQh-100" style="edgeStyle=orthogonalEdgeStyle;rounded=0;orthogonalLoop=1;jettySize=auto;html=1;exitX=1;exitY=0.5;exitDx=0;exitDy=0;entryX=1;entryY=0.5;entryDx=0;entryDy=0;dashed=1;" edge="1" parent="1" source="XoTrVkiUybTX8jjWBUQh-97" target="XoTrVkiUybTX8jjWBUQh-39">
          <mxGeometry relative="1" as="geometry" />
        </mxCell>
        <mxCell id="XoTrVkiUybTX8jjWBUQh-97" value="Move node based on mouse movement" style="rounded=1;whiteSpace=wrap;html=1;" vertex="1" parent="1">
          <mxGeometry x="1160" y="1080" width="120" height="60" as="geometry" />
        </mxCell>
        <mxCell id="XoTrVkiUybTX8jjWBUQh-105" style="edgeStyle=orthogonalEdgeStyle;rounded=0;orthogonalLoop=1;jettySize=auto;html=1;exitX=0.5;exitY=1;exitDx=0;exitDy=0;entryX=0.5;entryY=0;entryDx=0;entryDy=0;" edge="1" parent="1" source="XoTrVkiUybTX8jjWBUQh-102" target="XoTrVkiUybTX8jjWBUQh-103">
          <mxGeometry relative="1" as="geometry" />
        </mxCell>
        <mxCell id="XoTrVkiUybTX8jjWBUQh-102" value="User presses left click on node value" style="rounded=1;whiteSpace=wrap;html=1;" vertex="1" parent="1">
          <mxGeometry x="1360" y="840" width="120" height="60" as="geometry" />
        </mxCell>
        <mxCell id="XoTrVkiUybTX8jjWBUQh-106" value="POINTER" style="edgeStyle=orthogonalEdgeStyle;rounded=0;orthogonalLoop=1;jettySize=auto;html=1;exitX=0.5;exitY=1;exitDx=0;exitDy=0;entryX=0.5;entryY=0;entryDx=0;entryDy=0;" edge="1" parent="1" source="XoTrVkiUybTX8jjWBUQh-103" target="XoTrVkiUybTX8jjWBUQh-104">
          <mxGeometry relative="1" as="geometry" />
        </mxCell>
        <mxCell id="XoTrVkiUybTX8jjWBUQh-108" style="edgeStyle=orthogonalEdgeStyle;rounded=0;orthogonalLoop=1;jettySize=auto;html=1;exitX=1;exitY=0.5;exitDx=0;exitDy=0;entryX=1;entryY=0.5;entryDx=0;entryDy=0;dashed=1;" edge="1" parent="1" source="XoTrVkiUybTX8jjWBUQh-103" target="XoTrVkiUybTX8jjWBUQh-39">
          <mxGeometry relative="1" as="geometry" />
        </mxCell>
        <mxCell id="XoTrVkiUybTX8jjWBUQh-103" value="Check Pointer type" style="rounded=1;whiteSpace=wrap;html=1;" vertex="1" parent="1">
          <mxGeometry x="1360" y="960" width="120" height="60" as="geometry" />
        </mxCell>
        <mxCell id="XoTrVkiUybTX8jjWBUQh-110" style="edgeStyle=orthogonalEdgeStyle;rounded=0;orthogonalLoop=1;jettySize=auto;html=1;exitX=0.5;exitY=1;exitDx=0;exitDy=0;" edge="1" parent="1" source="XoTrVkiUybTX8jjWBUQh-104" target="XoTrVkiUybTX8jjWBUQh-109">
          <mxGeometry relative="1" as="geometry">
            <Array as="points">
              <mxPoint x="1420" y="1160" />
              <mxPoint x="1220" y="1160" />
            </Array>
          </mxGeometry>
        </mxCell>
        <mxCell id="XoTrVkiUybTX8jjWBUQh-111" value="INT/FLOAT/STRING" style="edgeLabel;html=1;align=center;verticalAlign=middle;resizable=0;points=[];" vertex="1" connectable="0" parent="XoTrVkiUybTX8jjWBUQh-110">
          <mxGeometry x="0.2254" y="4" relative="1" as="geometry">
            <mxPoint x="30" y="-4" as="offset" />
          </mxGeometry>
        </mxCell>
        <mxCell id="XoTrVkiUybTX8jjWBUQh-113" value="BOOL" style="edgeStyle=orthogonalEdgeStyle;rounded=0;orthogonalLoop=1;jettySize=auto;html=1;exitX=0.5;exitY=1;exitDx=0;exitDy=0;entryX=0.5;entryY=0;entryDx=0;entryDy=0;" edge="1" parent="1" source="XoTrVkiUybTX8jjWBUQh-104" target="XoTrVkiUybTX8jjWBUQh-112">
          <mxGeometry x="0.3333" relative="1" as="geometry">
            <mxPoint as="offset" />
          </mxGeometry>
        </mxCell>
        <mxCell id="XoTrVkiUybTX8jjWBUQh-115" value="FILE" style="edgeStyle=orthogonalEdgeStyle;rounded=0;orthogonalLoop=1;jettySize=auto;html=1;exitX=0.5;exitY=1;exitDx=0;exitDy=0;entryX=0.5;entryY=0;entryDx=0;entryDy=0;" edge="1" parent="1" source="XoTrVkiUybTX8jjWBUQh-104" target="XoTrVkiUybTX8jjWBUQh-114">
          <mxGeometry relative="1" as="geometry">
            <Array as="points">
              <mxPoint x="1420" y="1160" />
              <mxPoint x="1620" y="1160" />
            </Array>
          </mxGeometry>
        </mxCell>
        <mxCell id="XoTrVkiUybTX8jjWBUQh-104" value="Check type of value" style="rounded=1;whiteSpace=wrap;html=1;" vertex="1" parent="1">
          <mxGeometry x="1360" y="1080" width="120" height="60" as="geometry" />
        </mxCell>
        <mxCell id="XoTrVkiUybTX8jjWBUQh-121" style="edgeStyle=orthogonalEdgeStyle;rounded=0;orthogonalLoop=1;jettySize=auto;html=1;exitX=0.5;exitY=1;exitDx=0;exitDy=0;entryX=0.5;entryY=0;entryDx=0;entryDy=0;" edge="1" parent="1" source="XoTrVkiUybTX8jjWBUQh-109" target="XoTrVkiUybTX8jjWBUQh-120">
          <mxGeometry relative="1" as="geometry" />
        </mxCell>
        <mxCell id="XoTrVkiUybTX8jjWBUQh-123" style="edgeStyle=orthogonalEdgeStyle;rounded=0;orthogonalLoop=1;jettySize=auto;html=1;exitX=0;exitY=0.5;exitDx=0;exitDy=0;entryX=0.5;entryY=0;entryDx=0;entryDy=0;" edge="1" parent="1" source="XoTrVkiUybTX8jjWBUQh-109" target="XoTrVkiUybTX8jjWBUQh-122">
          <mxGeometry relative="1" as="geometry" />
        </mxCell>
        <mxCell id="XoTrVkiUybTX8jjWBUQh-109" value="Allow user to edit value in a textField" style="rounded=1;whiteSpace=wrap;html=1;" vertex="1" parent="1">
          <mxGeometry x="1160" y="1200" width="120" height="60" as="geometry" />
        </mxCell>
        <mxCell id="XoTrVkiUybTX8jjWBUQh-132" style="edgeStyle=orthogonalEdgeStyle;rounded=0;orthogonalLoop=1;jettySize=auto;html=1;exitX=1;exitY=0.5;exitDx=0;exitDy=0;entryX=1;entryY=0.5;entryDx=0;entryDy=0;dashed=1;" edge="1" parent="1" source="XoTrVkiUybTX8jjWBUQh-112" target="XoTrVkiUybTX8jjWBUQh-39">
          <mxGeometry relative="1" as="geometry" />
        </mxCell>
        <mxCell id="XoTrVkiUybTX8jjWBUQh-112" value="Allow user to turn on off with a checkbox" style="rounded=1;whiteSpace=wrap;html=1;" vertex="1" parent="1">
          <mxGeometry x="1360" y="1200" width="120" height="60" as="geometry" />
        </mxCell>
        <mxCell id="XoTrVkiUybTX8jjWBUQh-128" style="edgeStyle=orthogonalEdgeStyle;rounded=0;orthogonalLoop=1;jettySize=auto;html=1;exitX=1;exitY=0.5;exitDx=0;exitDy=0;entryX=1;entryY=0.5;entryDx=0;entryDy=0;dashed=1;" edge="1" parent="1" source="XoTrVkiUybTX8jjWBUQh-114" target="XoTrVkiUybTX8jjWBUQh-39">
          <mxGeometry relative="1" as="geometry" />
        </mxCell>
        <mxCell id="XoTrVkiUybTX8jjWBUQh-114" value="Allow user to pick a file from fileexplorer" style="rounded=1;whiteSpace=wrap;html=1;" vertex="1" parent="1">
          <mxGeometry x="1560" y="1200" width="120" height="60" as="geometry" />
        </mxCell>
        <mxCell id="XoTrVkiUybTX8jjWBUQh-127" style="edgeStyle=orthogonalEdgeStyle;rounded=0;orthogonalLoop=1;jettySize=auto;html=1;exitX=0.5;exitY=1;exitDx=0;exitDy=0;entryX=0.5;entryY=0;entryDx=0;entryDy=0;" edge="1" parent="1" source="XoTrVkiUybTX8jjWBUQh-120" target="XoTrVkiUybTX8jjWBUQh-124">
          <mxGeometry relative="1" as="geometry" />
        </mxCell>
        <mxCell id="XoTrVkiUybTX8jjWBUQh-120" value="User presses enter" style="rounded=1;whiteSpace=wrap;html=1;" vertex="1" parent="1">
          <mxGeometry x="1160" y="1320" width="120" height="60" as="geometry" />
        </mxCell>
        <mxCell id="XoTrVkiUybTX8jjWBUQh-126" style="edgeStyle=orthogonalEdgeStyle;rounded=0;orthogonalLoop=1;jettySize=auto;html=1;exitX=0.5;exitY=1;exitDx=0;exitDy=0;entryX=0.5;entryY=0;entryDx=0;entryDy=0;" edge="1" parent="1" source="XoTrVkiUybTX8jjWBUQh-122" target="XoTrVkiUybTX8jjWBUQh-125">
          <mxGeometry relative="1" as="geometry" />
        </mxCell>
        <mxCell id="XoTrVkiUybTX8jjWBUQh-122" value="User clicks away" style="rounded=1;whiteSpace=wrap;html=1;" vertex="1" parent="1">
          <mxGeometry x="960" y="1320" width="120" height="60" as="geometry" />
        </mxCell>
        <mxCell id="XoTrVkiUybTX8jjWBUQh-130" style="edgeStyle=orthogonalEdgeStyle;rounded=0;orthogonalLoop=1;jettySize=auto;html=1;exitX=1;exitY=0.5;exitDx=0;exitDy=0;entryX=1;entryY=0.5;entryDx=0;entryDy=0;dashed=1;" edge="1" parent="1" source="XoTrVkiUybTX8jjWBUQh-124" target="XoTrVkiUybTX8jjWBUQh-39">
          <mxGeometry relative="1" as="geometry" />
        </mxCell>
        <mxCell id="XoTrVkiUybTX8jjWBUQh-124" value="Save the new value" style="rounded=1;whiteSpace=wrap;html=1;" vertex="1" parent="1">
          <mxGeometry x="1160" y="1440" width="120" height="60" as="geometry" />
        </mxCell>
        <mxCell id="XoTrVkiUybTX8jjWBUQh-131" style="edgeStyle=orthogonalEdgeStyle;rounded=0;orthogonalLoop=1;jettySize=auto;html=1;exitX=1;exitY=0.5;exitDx=0;exitDy=0;entryX=1;entryY=0.5;entryDx=0;entryDy=0;dashed=1;" edge="1" parent="1" source="XoTrVkiUybTX8jjWBUQh-125" target="XoTrVkiUybTX8jjWBUQh-39">
          <mxGeometry relative="1" as="geometry" />
        </mxCell>
        <mxCell id="XoTrVkiUybTX8jjWBUQh-125" value="Reset the value to the previous value" style="rounded=1;whiteSpace=wrap;html=1;" vertex="1" parent="1">
          <mxGeometry x="960" y="1440" width="120" height="60" as="geometry" />
        </mxCell>
      </root>
    </mxGraphModel>
  </diagram>
</mxfile>
